<?xml version="1.0" encoding="UTF-8"?>
<svg xmlns="http://www.w3.org/2000/svg" xmlns:xlink="http://www.w3.org/1999/xlink" width="26pt" height="26pt" viewBox="0 0 26 26" version="1.1">
<g id="surface1">
<path style=" stroke:none;fill-rule:nonzero;fill:rgb(0%,0%,0%);fill-opacity:1;" d="M 11.796875 24.054688 C 12.121094 24.378906 12.554688 24.558594 13.011719 24.558594 C 13.460938 24.558594 13.90625 24.371094 14.226562 24.054688 L 23.753906 14.527344 C 25.199219 13.078125 25.996094 11.15625 26 9.113281 C 26 7.066406 25.203125 5.144531 23.757812 3.695312 C 22.308594 2.246094 20.390625 1.453125 18.34375 1.453125 C 16.335938 1.453125 14.441406 2.222656 13.003906 3.621094 C 11.5625 2.214844 9.664062 1.441406 7.652344 1.441406 C 5.609375 1.441406 3.691406 2.238281 2.242188 3.679688 C 0.796875 5.125 0 7.050781 0 9.097656 C 0 11.140625 0.800781 13.0625 2.246094 14.511719 Z M 3.164062 4.601562 C 4.363281 3.402344 5.960938 2.742188 7.65625 2.742188 C 9.351562 2.742188 10.953125 3.402344 12.15625 4.605469 L 12.550781 5 C 12.671875 5.121094 12.835938 5.191406 13.011719 5.191406 C 13.179688 5.191406 13.351562 5.121094 13.472656 5 L 13.855469 4.617188 C 15.058594 3.414062 16.652344 2.75 18.355469 2.75 C 20.050781 2.75 21.648438 3.414062 22.84375 4.613281 C 24.050781 5.816406 24.707031 7.410156 24.707031 9.109375 C 24.707031 10.804688 24.042969 12.402344 22.839844 13.605469 L 13.308594 23.136719 C 13.152344 23.289062 12.871094 23.289062 12.714844 23.136719 L 3.171875 13.59375 C 1.96875 12.390625 1.304688 10.792969 1.304688 9.097656 C 1.304688 7.402344 1.96875 5.804688 3.164062 4.601562 Z M 3.164062 4.601562 "/>
</g>
</svg>
