<?xml version="1.0" standalone="no"?>
<!DOCTYPE svg PUBLIC "-//W3C//DTD SVG 20010904//EN"
 "http://www.w3.org/TR/2001/REC-SVG-20010904/DTD/svg10.dtd">
<svg version="1.0" xmlns="http://www.w3.org/2000/svg"
 width="90.000000pt" height="80.000000pt" viewBox="20 110 300.000000 0.100000"
 preserveAspectRatio="xMidYMid meet">

<g transform="translate(0.000000,250.000000) scale(0.100000,-0.100000)"
fill="#ffffff" stroke="none">
<path d="M1652 2203 c-75 -37 -131 -138 -156 -284 l-13 -74 -42 3 c-40 2 -42
1 -35 -20 3 -13 15 -40 25 -60 26 -51 24 -59 -11 -51 l-30 6 16 -39 c9 -22 23
-51 30 -66 l15 -28 -36 0 c-43 0 -43 1 17 -128 l39 -86 58 95 58 94 -28 3
c-16 2 -29 5 -29 7 0 3 16 29 35 59 19 30 35 58 35 61 0 3 -13 5 -30 5 -16 0
-30 3 -30 8 0 4 16 33 35 65 l34 57 -44 0 c-52 0 -53 2 -24 87 22 67 74 135
122 160 114 58 302 -38 459 -235 32 -40 58 -71 58 -67 0 29 -136 246 -189 301
-50 53 -115 102 -162 123 -54 25 -132 27 -177 4z"/>
<path d="M1801 1784 c70 -127 67 -122 83 -101 7 9 16 17 19 17 4 0 18 -22 32
-49 30 -60 41 -68 55 -41 17 31 27 25 62 -36 l31 -57 29 34 28 34 44 -47 c54
-59 78 -109 84 -174 12 -143 -145 -254 -428 -304 l-105 -18 143 -1 c217 -1
351 33 440 114 123 110 80 268 -116 426 l-43 34 26 35 26 35 -68 8 c-37 5 -70
10 -72 13 -2 2 3 14 12 27 l16 24 -66 6 c-36 4 -68 8 -70 11 -3 2 3 15 12 29
16 25 15 25 -12 31 -15 3 -55 8 -88 11 -33 4 -73 9 -89 12 l-28 5 43 -78z"/>
<path d="M1284 1709 c-94 -144 -144 -283 -145 -399 -2 -124 36 -191 127 -226
61 -23 165 -14 272 24 l84 30 18 -39 17 -40 43 57 c40 53 44 56 56 39 8 -11
14 -23 14 -29 0 -5 18 15 40 45 23 30 45 55 50 57 5 2 12 -8 16 -23 3 -14 11
-24 16 -23 6 2 39 43 75 91 l64 87 -95 0 c-52 0 -101 3 -110 6 -13 5 -15 1
-10 -26 l7 -32 -67 4 c-56 2 -65 1 -60 -12 21 -49 20 -50 -50 -50 -71 0 -75
-4 -51 -50 8 -16 11 -31 7 -34 -5 -3 -39 -10 -75 -16 -130 -20 -217 14 -261
102 -49 97 -31 282 43 458 16 38 27 70 25 70 -2 0 -25 -32 -50 -71z"/>
<path d="M481 776 c-33 -18 -50 -53 -51 -104 0 -49 21 -96 49 -112 54 -29 149
8 151 58 0 20 -21 14 -42 -13 -22 -28 -72 -34 -101 -12 -34 24 -34 118 -1 151
22 23 77 20 99 -4 19 -21 45 -27 45 -11 0 5 -14 21 -31 35 -34 29 -79 33 -118
12z"/>
<path d="M713 770 c-42 -25 -61 -84 -45 -138 16 -51 42 -73 94 -79 60 -6 103
22 118 77 31 114 -71 199 -167 140z m117 -32 c14 -16 20 -35 20 -70 0 -65 -25
-90 -83 -86 -37 3 -44 7 -60 40 -15 31 -16 44 -7 77 6 22 18 45 28 50 30 18
80 13 102 -11z"/>
<path d="M930 670 c0 -73 4 -120 10 -120 6 0 10 37 10 92 0 52 4 88 9 83 4 -6
21 -47 36 -92 16 -46 34 -83 41 -83 7 0 27 42 46 93 l33 92 3 -92 c2 -75 6
-93 18 -93 12 0 14 19 12 118 -3 106 -5 117 -22 117 -14 0 -26 -20 -50 -87
-30 -82 -46 -115 -46 -90 0 6 -14 49 -31 96 -24 67 -35 86 -50 86 -18 0 -19
-9 -19 -120z"/>
<path d="M1200 671 c0 -101 2 -121 15 -121 11 0 15 12 15 50 l0 50 54 0 c47 0
57 4 76 27 15 19 19 35 15 53 -10 42 -29 52 -104 58 l-71 5 0 -122z m124 83
c17 -7 22 -59 7 -68 -5 -4 -30 -9 -55 -12 l-46 -7 0 47 0 46 39 0 c22 0 46 -3
55 -6z"/>
<path d="M1456 782 c-8 -13 -86 -216 -86 -224 0 -5 6 -8 14 -8 8 0 20 16 26
35 11 34 13 35 65 35 51 0 54 -1 60 -31 7 -29 29 -48 42 -36 3 4 -16 58 -42
122 -43 103 -64 131 -79 107z m48 -110 c7 -20 4 -22 -29 -22 -34 0 -37 2 -31
25 3 13 11 37 17 52 l11 28 13 -31 c7 -17 16 -40 19 -52z"/>
<path d="M1610 670 c0 -100 3 -120 15 -120 12 0 15 17 15 93 l0 92 61 -92 c34
-51 68 -93 75 -93 11 0 14 26 14 121 0 92 -3 120 -12 117 -9 -3 -15 -34 -18
-88 l-5 -83 -58 86 c-79 120 -87 117 -87 -33z"/>
<path d="M1830 783 c0 -5 18 -35 40 -68 34 -51 40 -68 40 -112 0 -40 4 -53 15
-53 11 0 15 12 15 48 0 39 7 58 45 114 50 74 51 78 31 78 -7 0 -30 -25 -51
-57 l-37 -56 -35 56 c-19 32 -41 57 -49 57 -8 0 -14 -3 -14 -7z"/>
<path d="M2150 670 c0 -99 3 -120 15 -120 11 0 15 19 17 88 l3 87 59 -87 c32
-49 65 -88 73 -88 10 0 13 26 13 121 0 92 -3 120 -12 117 -9 -3 -15 -34 -18
-91 l-5 -86 -59 90 c-32 49 -65 89 -72 89 -11 0 -14 -25 -14 -120z"/>
<path d="M2441 768 c-5 -13 -25 -65 -45 -117 -20 -52 -34 -96 -32 -99 12 -11
35 9 41 37 6 30 9 31 60 31 52 0 54 -1 65 -35 11 -33 40 -50 40 -22 -1 6 -20
59 -45 117 -44 108 -67 132 -84 88z m58 -105 c1 -8 -12 -13 -34 -13 -19 0 -35
1 -35 3 0 2 8 26 17 52 l16 50 18 -40 c10 -22 18 -46 18 -52z"/>
<path d="M2600 670 c0 -99 3 -120 15 -120 11 0 15 19 17 93 l3 92 31 -90 c18
-52 37 -91 45 -93 10 -2 24 24 44 83 l30 86 5 -82 c3 -53 9 -84 18 -87 9 -3
12 25 12 117 0 99 -3 121 -14 121 -19 0 -23 -7 -61 -113 l-32 -91 -34 102
c-29 90 -36 102 -56 102 -23 0 -23 -2 -23 -120z"/>
<path d="M2880 670 l0 -120 85 0 c69 0 85 3 85 15 0 12 -14 15 -70 15 l-70 0
0 40 0 40 60 0 c47 0 60 3 60 15 0 12 -13 15 -60 15 l-60 0 0 35 0 35 65 0
c51 0 65 3 65 15 0 12 -16 15 -80 15 l-80 0 0 -120z"/>






</g>
</svg>
